<?xml version="1.0" encoding="UTF-8"?> <svg xmlns="http://www.w3.org/2000/svg" width="333" height="136" viewBox="0 0 333 136" fill="none"><path d="M71.1456 115.117C71.4829 115.117 71.736 115.027 71.9187 114.849C72.1015 114.666 72.1905 114.418 72.1905 114.085C72.1905 113.784 72.0968 113.541 71.9094 113.339C71.7266 113.146 71.4783 113.053 71.1456 113.053H69.5852L71.0753 108.292C71.1456 108.095 71.1737 107.94 71.1737 107.794C71.1737 107.274 70.9628 107.109 70.8925 107.053C70.4989 106.753 70.035 106.669 69.5477 106.973C69.3696 107.086 69.2431 107.264 69.1541 107.522L67.3594 113.048H63.9949L65.5178 108.282C65.56 108.109 65.5881 107.93 65.5881 107.79C65.5881 107.245 65.3819 107.091 65.3117 107.039C64.904 106.739 64.4541 106.678 63.9949 106.969C63.8169 107.081 63.6903 107.26 63.6013 107.518L61.7738 113.043H58.5031C58.1844 113.043 57.9455 113.137 57.7487 113.339C57.5519 113.541 57.4581 113.784 57.4581 114.08C57.4581 114.408 57.5472 114.657 57.7346 114.835C57.9267 115.023 58.1798 115.112 58.4984 115.112H61.1365L60.0588 118.508H57.6128C57.3082 118.508 57.0598 118.602 56.8583 118.79C56.6615 118.972 56.5725 119.212 56.5725 119.54C56.5725 119.868 56.6615 120.103 56.8537 120.272C57.0598 120.455 57.3082 120.544 57.6175 120.544H59.4309L57.3504 126.961C57.3082 127.069 57.2848 127.139 57.2707 127.205C57.2566 127.261 57.252 127.322 57.252 127.388C57.252 127.801 57.416 127.974 57.5378 128.068C57.7674 128.246 58.0158 128.331 58.2969 128.331C58.6483 128.331 59.0841 128.223 59.3653 127.383L61.5911 120.544H64.9883L62.9078 126.961C62.8656 127.069 62.8422 127.139 62.8281 127.205C62.8141 127.261 62.8094 127.322 62.8094 127.388C62.8094 127.791 62.964 127.96 63.1046 128.063C63.3483 128.246 63.5919 128.331 63.8543 128.331C64.2198 128.331 64.6697 128.223 64.9508 127.383L67.1766 120.544H70.2646C70.6067 120.544 70.8644 120.459 71.0472 120.281C71.2252 120.112 71.3096 119.868 71.3096 119.54C71.3096 119.212 71.2205 118.954 71.0425 118.775C70.8597 118.597 70.6067 118.508 70.2693 118.508H67.8186L68.901 115.112H71.1643L71.1456 115.117ZM65.649 118.513H62.2471L63.3248 115.117H66.6846L65.6443 118.513H65.649Z" fill="#9D1F16"></path><path d="M96.1258 114.23C96.6225 114.23 97.1099 114.338 97.5831 114.549C98.047 114.755 98.4641 115.051 98.8249 115.417C99.181 115.787 99.4715 116.214 99.6777 116.697C99.8886 117.181 99.9964 117.72 99.9964 118.297V127.092C99.9964 127.5 100.104 127.805 100.329 128.012C100.812 128.462 101.749 128.438 102.185 128.016C102.405 127.805 102.508 127.5 102.508 127.088V118.292C102.508 117.349 102.325 116.468 101.969 115.67C101.608 114.868 101.126 114.164 100.54 113.592C99.9542 113.015 99.2654 112.555 98.4969 112.227C96.8615 111.528 95.0996 111.589 93.3705 112.307C92.4755 112.677 91.7727 113.268 91.2338 114.103L90.8027 114.765L90.395 114.085C90.1607 113.686 89.8608 113.334 89.5047 113.034C89.1439 112.729 88.7503 112.485 88.3332 112.297C87.9115 112.11 87.4523 111.964 86.979 111.871C85.7841 111.636 84.6783 111.683 83.5911 112.119C82.9632 112.373 82.4572 112.771 82.0354 113.329L81.3513 114.244L81.1545 113.118C81.0327 112.419 80.6531 112.124 79.8893 112.124C79.5754 112.124 79.3411 112.208 79.1677 112.387C78.9943 112.57 78.9053 112.818 78.9053 113.156V127.078C78.9053 127.486 79.0177 127.786 79.2473 127.998C79.7768 128.476 80.7046 128.406 81.1217 128.007C81.3372 127.796 81.445 127.491 81.445 127.078V118.283C81.445 117.697 81.5715 117.152 81.8199 116.655C82.0589 116.181 82.3681 115.759 82.7477 115.393C83.1319 115.023 83.5724 114.732 84.0691 114.53C85.0719 114.113 86.0793 114.113 87.0212 114.535C87.4851 114.741 87.9021 115.037 88.263 115.403C88.6191 115.769 88.9096 116.195 89.1251 116.674C89.3501 117.166 89.4625 117.706 89.4625 118.283V127.078C89.4625 127.486 89.5703 127.791 89.7952 127.998C90.3013 128.471 91.2338 128.406 91.6508 128.002C91.8711 127.791 91.9742 127.486 91.9742 127.073V118.278C91.9742 117.697 92.1007 117.148 92.349 116.655C92.588 116.177 92.9066 115.75 93.2956 115.389C93.6892 115.023 94.1297 114.737 94.6029 114.53C95.0949 114.324 95.601 114.216 96.1165 114.216L96.1258 114.23Z" fill="#9D1F16"></path><path d="M125.469 112.462C125.052 112.049 124.133 111.978 123.604 112.471C123.37 112.691 123.252 112.992 123.252 113.376V114.648L122.395 113.709C121.851 113.114 121.162 112.631 120.352 112.274C119.541 111.918 118.585 111.735 117.512 111.735C116.299 111.735 115.155 111.964 114.115 112.415C113.075 112.865 112.161 113.484 111.397 114.249C110.638 115.013 110.038 115.923 109.617 116.946C109.195 117.969 108.979 119.08 108.979 120.253C108.979 121.426 109.195 122.537 109.617 123.56C110.038 124.583 110.633 125.488 111.383 126.243C112.133 126.998 113.042 127.603 114.082 128.044C115.521 128.654 117.24 128.945 118.932 128.537C119.419 128.42 119.879 128.265 120.305 128.077C120.727 127.89 121.12 127.664 121.476 127.411C121.837 127.148 122.151 126.881 122.414 126.623L123.252 125.779V126.97C123.252 127.472 123.365 127.777 123.604 128.002C124.129 128.499 125.047 128.429 125.469 128.012C125.689 127.791 125.797 127.482 125.797 127.064V113.386C125.797 112.992 125.689 112.691 125.464 112.466L125.469 112.462ZM122.789 122.556C122.503 123.269 122.104 123.902 121.603 124.433C121.102 124.967 120.488 125.394 119.785 125.708C119.077 126.018 118.313 126.177 117.512 126.177C116.711 126.177 115.882 126.023 115.155 125.713C114.434 125.404 113.801 124.977 113.267 124.447C112.733 123.917 112.306 123.283 111.997 122.566C111.688 121.848 111.528 121.069 111.528 120.248C111.528 119.427 111.688 118.649 111.997 117.917C112.306 117.19 112.733 116.552 113.267 116.008C113.801 115.468 114.438 115.032 115.155 114.727C116.57 114.122 118.342 114.089 119.785 114.727C120.488 115.037 121.097 115.473 121.603 116.017C122.104 116.561 122.503 117.204 122.789 117.926C123.074 118.653 123.224 119.432 123.224 120.244C123.224 121.055 123.079 121.834 122.789 122.552V122.556Z" fill="#9D1F16"></path><path d="M139.981 114.23C140.66 114.23 141.288 114.357 141.841 114.61C142.394 114.863 142.872 115.215 143.252 115.651C143.631 116.083 143.926 116.594 144.128 117.171C144.329 117.739 144.432 118.353 144.432 119.001V127.092C144.432 127.5 144.54 127.805 144.765 128.012C145.248 128.462 146.185 128.438 146.621 128.016C146.841 127.805 146.944 127.5 146.944 127.087V118.996C146.944 117.959 146.785 116.984 146.466 116.097C146.152 115.22 145.698 114.446 145.107 113.808C144.521 113.17 143.8 112.659 142.97 112.293C141.419 111.608 139.292 111.528 137.75 112.213C137.038 112.532 136.434 112.964 135.951 113.498L135.281 114.239L135.103 113.254C134.962 112.471 134.573 112.133 133.805 112.133C133.519 112.133 133.285 112.227 133.083 112.415C132.891 112.593 132.797 112.842 132.797 113.165V127.087C132.797 127.496 132.91 127.796 133.144 128.007C133.674 128.485 134.601 128.415 135.018 128.016C135.239 127.805 135.342 127.5 135.342 127.087V118.996C135.342 118.325 135.45 117.697 135.665 117.129C135.881 116.552 136.204 116.041 136.616 115.614C137.029 115.196 137.521 114.854 138.092 114.605C138.664 114.357 139.301 114.23 139.976 114.23H139.981Z" fill="#9D1F16"></path><path d="M169.961 112.41C169.764 112.222 169.53 112.133 169.226 112.133C168.719 112.133 168.373 112.241 168.185 112.452C167.974 112.691 167.848 113.095 167.815 113.653L167.745 114.788L166.967 113.963C166.7 113.677 166.381 113.4 166.02 113.137C165.655 112.87 165.252 112.626 164.825 112.419C164.399 112.213 163.93 112.044 163.448 111.918C161.925 111.533 160.261 111.753 158.762 112.396C157.731 112.837 156.808 113.451 156.03 114.216C155.248 114.985 154.61 115.895 154.137 116.927C153.668 117.945 153.429 119.052 153.429 120.216C153.429 121.379 153.668 122.491 154.137 123.504C154.61 124.531 155.248 125.446 156.03 126.215C156.813 126.984 157.731 127.594 158.762 128.035C160.861 128.931 163.307 128.856 164.863 128.176C165.641 127.838 166.278 127.346 166.756 126.722L167.637 125.577V127.022C167.637 127.866 167.543 128.682 167.365 129.442C167.173 130.235 166.836 130.934 166.362 131.516C165.884 132.102 165.247 132.576 164.46 132.923C163.687 133.265 162.722 133.439 161.592 133.439C161.175 133.439 160.861 133.551 160.641 133.781C160.416 134.011 160.304 134.321 160.304 134.719C160.304 135.118 160.411 135.446 160.632 135.667C160.852 135.887 161.217 135.995 161.709 135.995C163.228 135.995 164.54 135.751 165.608 135.273C166.672 134.794 167.557 134.157 168.246 133.368C168.935 132.58 169.441 131.67 169.76 130.671C170.083 129.658 170.242 128.603 170.242 127.538V113.156C170.242 112.828 170.153 112.579 169.966 112.401L169.961 112.41ZM167.229 122.523C166.943 123.236 166.545 123.874 166.044 124.414C165.538 124.958 164.929 125.394 164.226 125.708C163.518 126.018 162.754 126.177 161.953 126.177C161.152 126.177 160.322 126.023 159.596 125.713C158.874 125.404 158.237 124.972 157.703 124.428C157.173 123.888 156.747 123.255 156.438 122.537C156.124 121.82 155.964 121.036 155.964 120.22C155.964 119.404 156.124 118.621 156.438 117.903C156.747 117.19 157.173 116.552 157.703 116.013C158.237 115.468 158.874 115.037 159.591 114.732C161.006 114.127 162.778 114.094 164.221 114.732C164.924 115.042 165.533 115.478 166.039 116.022C166.541 116.566 166.939 117.199 167.225 117.912C167.515 118.63 167.66 119.404 167.66 120.216C167.66 121.027 167.515 121.806 167.225 122.523H167.229Z" fill="#9D1F16"></path><path d="M193.039 116.772C192.584 115.787 191.966 114.91 191.197 114.174C190.424 113.433 189.511 112.832 188.475 112.391C187.449 111.95 186.338 111.73 185.186 111.73C184.033 111.73 182.894 111.96 181.868 112.405C180.832 112.856 179.919 113.475 179.15 114.244C178.382 115.009 177.768 115.919 177.323 116.946C176.882 117.969 176.657 119.076 176.657 120.244C176.657 121.412 176.882 122.523 177.323 123.546C177.768 124.573 178.382 125.474 179.15 126.229C179.923 126.989 180.837 127.594 181.868 128.035C183.948 128.926 186.512 128.889 188.536 128.091C189.548 127.693 190.434 127.078 191.174 126.262C191.315 126.121 191.394 125.995 191.432 125.849C191.479 125.671 191.507 125.479 191.507 125.282C191.507 124.939 191.394 124.648 191.16 124.39C190.832 124.034 190.429 123.893 189.839 124.156C189.637 124.25 189.454 124.372 189.29 124.517C188.775 125.033 188.152 125.446 187.463 125.737C186.226 126.253 184.684 126.337 183.274 125.84C182.655 125.619 182.079 125.314 181.563 124.93C181.043 124.545 180.593 124.076 180.237 123.541C179.872 123.002 179.633 122.401 179.516 121.763L179.413 121.186H192.458C192.88 121.186 193.189 121.083 193.4 120.872C193.611 120.661 193.714 120.337 193.714 119.878C193.714 118.794 193.484 117.753 193.039 116.772ZM179.417 119.273L179.548 118.677C179.684 118.048 179.937 117.457 180.298 116.918C180.654 116.388 181.085 115.923 181.582 115.525C182.079 115.126 182.65 114.812 183.274 114.591C184.525 114.146 185.851 114.15 187.102 114.591C187.725 114.816 188.297 115.126 188.808 115.525C189.314 115.919 189.754 116.388 190.11 116.918C190.476 117.462 190.715 118.058 190.832 118.696L190.935 119.277H179.422L179.417 119.273Z" fill="#9D1F16"></path><path d="M201.389 112.129C200.667 112.129 200.489 112.391 200.433 112.48C200.232 112.776 200.133 113.132 200.133 113.564V127.181C200.133 127.519 200.241 127.777 200.471 128.002C200.939 128.453 201.9 128.453 202.345 128.007C202.565 127.786 202.673 127.524 202.673 127.209V119.179C202.673 118.532 202.739 117.936 202.875 117.396C203.015 116.819 203.282 116.317 203.666 115.9C204.051 115.482 204.571 115.159 205.217 114.929C205.831 114.713 206.609 114.568 207.528 114.507C207.917 114.479 208.193 114.366 208.352 114.178C208.521 113.977 208.605 113.686 208.605 113.32C208.605 112.87 208.498 112.551 208.282 112.373C208.034 112.171 207.715 112.068 207.317 112.068C206.464 112.068 205.709 112.199 205.077 112.462C204.454 112.715 203.863 113.146 203.32 113.742L202.551 114.587L202.462 113.451C202.429 113.001 202.317 112.654 202.134 112.415C202.083 112.344 201.914 112.133 201.389 112.133V112.129Z" fill="#9D1F16"></path><path d="M214.247 124.742C213.966 124.742 213.741 124.855 213.535 125.099C213.31 125.366 213.202 125.638 213.202 125.929C213.202 126.196 213.268 126.426 213.409 126.628C213.573 126.872 213.779 127.088 214.027 127.28C214.454 127.613 214.988 127.89 215.62 128.105C216.97 128.565 218.465 128.532 219.552 128.03C220.137 127.763 220.644 127.406 221.056 126.98C221.473 126.548 221.792 126.051 222.012 125.502C222.232 124.953 222.345 124.376 222.345 123.795C222.345 122.978 222.251 122.289 222.063 121.74C221.885 121.215 221.581 120.741 221.168 120.328C220.84 120.018 220.414 119.714 219.908 119.432C219.383 119.137 218.741 118.841 217.991 118.546C217.181 118.222 216.684 117.926 216.431 117.621C216.164 117.298 216.023 116.857 216.023 116.313C216.023 115.708 216.206 115.229 216.562 114.887C216.909 114.554 217.317 114.385 217.776 114.385C218.586 114.385 219.224 114.676 219.669 115.248C219.739 115.342 219.847 115.417 219.997 115.473C220.658 115.726 221.061 115.553 221.276 115.285C221.459 115.06 221.548 114.798 221.548 114.483C221.548 114.056 221.459 113.719 221.271 113.456C220.953 113.001 220.508 112.673 219.903 112.443C218.629 111.96 217.246 111.974 216.178 112.391C215.648 112.602 215.18 112.898 214.791 113.278C214.402 113.653 214.093 114.117 213.877 114.652C213.657 115.192 213.544 115.797 213.544 116.463C213.544 117.359 213.723 118.091 214.079 118.639C214.444 119.202 214.955 119.671 215.597 120.037C216.098 120.323 216.618 120.558 217.148 120.731C217.762 120.933 218.329 121.224 218.835 121.595C219.107 121.792 219.336 122.036 219.524 122.317C219.735 122.636 219.833 123.058 219.833 123.612C219.833 124.207 219.645 124.714 219.275 125.122C218.896 125.54 218.319 125.755 217.56 125.755C217.078 125.755 216.632 125.685 216.229 125.544C215.85 125.413 215.489 125.244 215.156 125.042C214.828 124.845 214.519 124.747 214.243 124.747L214.247 124.742Z" fill="#9D1F16"></path><path d="M244.419 112.462C244.002 112.049 243.084 111.983 242.555 112.476C242.32 112.696 242.203 112.992 242.203 113.381V114.652L241.346 113.714C240.802 113.118 240.113 112.635 239.303 112.279C238.492 111.922 237.536 111.739 236.463 111.739C235.249 111.739 234.106 111.969 233.066 112.419C232.025 112.87 231.112 113.489 230.348 114.254C229.589 115.018 228.989 115.928 228.567 116.951C228.145 117.973 227.93 119.085 227.93 120.258C227.93 121.43 228.145 122.542 228.567 123.565C228.989 124.587 229.584 125.493 230.334 126.248C231.084 127.003 231.993 127.608 233.033 128.049C234.471 128.659 236.191 128.95 237.883 128.542C238.37 128.424 238.829 128.27 239.256 128.082C239.677 127.894 240.071 127.674 240.427 127.416C240.783 127.153 241.102 126.89 241.364 126.628L242.203 125.788V126.975C242.203 127.477 242.316 127.782 242.555 128.007C243.079 128.495 244.002 128.434 244.419 128.016C244.64 127.796 244.748 127.486 244.748 127.069V113.39C244.748 112.996 244.64 112.696 244.415 112.471L244.419 112.462ZM241.739 122.556C241.453 123.269 241.055 123.902 240.554 124.433C240.052 124.967 239.438 125.394 238.736 125.708C238.028 126.018 237.264 126.177 236.463 126.177C235.662 126.177 234.832 126.023 234.106 125.713C233.384 125.404 232.752 124.977 232.217 124.447C231.683 123.917 231.257 123.283 230.948 122.566C230.638 121.848 230.479 121.069 230.479 120.248C230.479 119.427 230.638 118.649 230.948 117.917C231.257 117.19 231.683 116.552 232.217 116.008C232.752 115.468 233.389 115.032 234.106 114.727C235.521 114.117 237.292 114.089 238.736 114.727C239.438 115.037 240.048 115.473 240.554 116.017C241.055 116.561 241.453 117.204 241.739 117.926C242.025 118.653 242.175 119.432 242.175 120.244C242.175 121.055 242.03 121.834 241.739 122.552V122.556Z" fill="#9D1F16"></path><path d="M253.009 112.743C252.648 112.743 252.353 112.86 252.104 113.095C251.865 113.325 251.748 113.62 251.748 113.991V127.055C251.748 127.467 251.861 127.772 252.1 127.993C252.629 128.485 253.548 128.415 253.965 128.002C254.185 127.782 254.293 127.472 254.293 127.055V113.991C254.293 113.611 254.185 113.315 253.955 113.086C253.73 112.856 253.421 112.743 253.004 112.743H253.009Z" fill="#9D1F16"></path><path d="M253.009 105.383C252.643 105.383 252.348 105.496 252.1 105.726C251.865 105.946 251.753 106.242 251.753 106.631V109.075C251.753 109.464 251.865 109.76 252.104 109.985C252.634 110.477 253.552 110.412 253.969 109.994C254.19 109.774 254.297 109.474 254.297 109.075V106.631C254.297 106.237 254.19 105.937 253.969 105.712C253.744 105.491 253.435 105.383 253.013 105.383H253.009Z" fill="#9D1F16"></path><path d="M268.538 114.23C269.217 114.23 269.845 114.357 270.398 114.61C270.951 114.863 271.429 115.215 271.808 115.651C272.188 116.083 272.483 116.594 272.685 117.171C272.886 117.739 272.989 118.353 272.989 119.001V127.092C272.989 127.5 273.097 127.805 273.322 128.012C273.8 128.462 274.737 128.438 275.178 128.016C275.393 127.805 275.501 127.5 275.501 127.087V118.996C275.501 117.959 275.342 116.984 275.023 116.097C274.709 115.22 274.255 114.446 273.664 113.808C273.078 113.17 272.357 112.659 271.527 112.293C269.976 111.608 267.849 111.528 266.307 112.213C265.595 112.532 264.991 112.964 264.508 113.498L263.838 114.239L263.66 113.254C263.519 112.471 263.13 112.133 262.362 112.133C262.076 112.133 261.842 112.227 261.64 112.415C261.443 112.598 261.35 112.837 261.35 113.165V127.087C261.35 127.496 261.462 127.796 261.692 128.007C262.221 128.485 263.149 128.415 263.566 128.016C263.786 127.805 263.889 127.5 263.889 127.087V118.996C263.889 118.33 263.997 117.701 264.213 117.129C264.428 116.552 264.747 116.041 265.164 115.614C265.572 115.196 266.068 114.854 266.635 114.605C267.207 114.357 267.844 114.23 268.524 114.23H268.538Z" fill="#9D1F16"></path><path d="M38.8365 21.3806H27.8528C27.6935 21.3806 27.581 21.4275 27.4686 21.5401C27.3561 21.6527 27.3092 21.7653 27.3092 21.9294V57.4856C27.3092 57.9594 27.0281 58.3253 26.5876 58.4144C26.1143 58.5176 25.7114 58.2455 25.5567 57.7624L13.2423 21.9294C13.1064 21.465 12.8861 21.3806 12.5722 21.3806H0.538875C0.379555 21.3806 0.267094 21.4275 0.15932 21.5354C0.0468587 21.648 0 21.7653 0 21.9247V86.7092C0 86.8687 0.0468587 86.986 0.154634 87.0939H0.15932C0.267094 87.2064 0.379555 87.2533 0.538875 87.2533H11.5225C11.6819 87.2533 11.799 87.2064 11.9068 87.0985C12.0146 86.986 12.0661 86.8687 12.0661 86.7092L11.9724 50.9607C11.9724 50.4354 12.3191 50.0648 12.8158 50.0648C13.2376 50.0648 13.575 50.3275 13.7202 50.7637L26.0394 86.6951C26.1799 87.1548 26.4002 87.244 26.7094 87.244H38.8365C38.9958 87.244 39.1129 87.1971 39.2254 87.0845C39.3332 86.9766 39.38 86.8593 39.38 86.6998V21.9247C39.38 21.7653 39.3332 21.648 39.2207 21.5354C39.1129 21.4322 38.9958 21.3806 38.8365 21.3806Z" fill="#9D1F16"></path><path d="M87.921 21.3806H75.0302C74.6225 21.3806 74.4585 21.5213 74.3836 21.9388L60.34 86.7467C60.2744 87.0376 60.3072 87.1642 60.3213 87.183C60.34 87.2017 60.4384 87.258 60.7008 87.258H71.8719C72.4249 87.258 72.4858 87.0516 72.5092 86.7561L74.2383 77.4027C74.2289 77.0556 74.5382 76.5255 75.4051 76.5255H87.34C88.2069 76.5255 88.5161 77.1072 88.5161 77.6091L90.0437 86.7561C90.0718 87.0516 90.1328 87.258 90.681 87.258H102.138C102.583 87.258 102.583 87.1548 102.583 87L102.503 86.7608L88.5583 21.9576C88.4786 21.5213 88.3146 21.3806 87.907 21.3806H87.921ZM85.6296 67.2847H77.4153C77.0217 67.2847 76.7218 67.1627 76.525 66.9235C76.3985 66.7687 76.2626 66.4966 76.3469 66.0791L80.8313 41.3634C81.0609 40.6457 81.5248 40.58 81.7122 40.58C81.8997 40.58 82.3589 40.6504 82.5698 41.2836L86.6043 66.1026C86.6137 66.9469 86.117 67.2847 85.6249 67.2847H85.6296Z" fill="#9D1F16"></path><path d="M139.105 20.6113C133.566 20.6113 129.063 22.2625 125.727 25.5179C122.395 28.7686 120.703 33.2061 120.703 38.6943V69.7426C120.703 75.3012 122.395 79.7809 125.727 83.0645C129.063 86.3527 133.561 88.0179 139.1 88.0179C144.639 88.0179 149.156 86.3527 152.525 83.0645C155.89 79.7809 157.595 75.3012 157.595 69.7473V68.6919C157.595 68.4058 157.567 68.2463 157.056 68.2463L145.857 67.7678C145.721 67.7678 145.609 67.8147 145.501 67.9273C145.389 68.0399 145.342 68.1525 145.342 68.3119V70.9013C145.342 72.8995 144.775 74.5366 143.655 75.7656C142.521 77.0087 140.988 77.6419 139.1 77.6419C137.212 77.6419 135.773 77.0087 134.644 75.7656C133.524 74.5366 132.957 72.8995 132.957 70.9013V37.8359C132.957 35.8376 133.524 34.1865 134.639 32.9293C135.768 31.6488 137.268 31.0014 139.1 31.0014C140.932 31.0014 142.525 31.6488 143.659 32.9293C144.775 34.1912 145.342 35.8376 145.342 37.8359V40.3267C145.342 40.6128 145.37 40.7723 145.885 40.7723L157.033 40.2939C157.216 40.2939 157.333 40.247 157.445 40.1344C157.553 40.0265 157.6 39.9092 157.6 39.7497V38.6943C157.6 33.2061 155.908 28.7733 152.577 25.5179C149.24 22.2625 144.709 20.6113 139.105 20.6113Z" fill="#9D1F16"></path><path d="M215.02 21.3806H203.849C203.69 21.3806 203.577 21.4275 203.465 21.5401C203.352 21.6527 203.306 21.7653 203.306 21.9294V47.9961C203.306 48.6435 202.87 49.0797 202.223 49.0797H192.673C192.017 49.0797 191.591 48.6529 191.591 47.9961V21.9294C191.591 21.7746 191.539 21.6527 191.432 21.5401C191.324 21.4322 191.207 21.3853 191.047 21.3853H179.876C179.717 21.3853 179.6 21.4322 179.492 21.5448C179.384 21.6527 179.337 21.7699 179.337 21.9341V86.7186C179.337 86.8828 179.384 86.9954 179.492 87.1032C179.604 87.2158 179.722 87.2627 179.881 87.2627H191.052C191.211 87.2627 191.324 87.2158 191.436 87.1032C191.544 86.9954 191.596 86.8781 191.596 86.7186V60.5534C191.596 59.8967 192.022 59.4698 192.678 59.4698H202.228C202.875 59.4698 203.31 59.9061 203.31 60.5534V86.7186C203.31 86.8781 203.357 86.9954 203.465 87.1032C203.577 87.2158 203.69 87.2627 203.854 87.2627H215.025C215.184 87.2627 215.301 87.2158 215.414 87.1032C215.522 86.9954 215.569 86.8781 215.569 86.7186V21.9247C215.569 21.7653 215.522 21.648 215.409 21.5354C215.301 21.4322 215.184 21.3806 215.025 21.3806H215.02Z" fill="#9D1F16"></path><path d="M256.275 20.6113C250.61 20.6113 246.027 22.2953 242.658 25.6117C239.293 28.9281 237.588 33.4219 237.588 38.9805V69.6488C237.588 75.2027 239.293 79.7012 242.658 83.0176C246.027 86.3386 250.61 88.0179 256.275 88.0179C261.94 88.0179 266.542 86.334 269.939 83.0129C273.336 79.6965 275.056 75.2027 275.056 69.6488V38.9805C275.056 33.4266 273.331 28.9281 269.939 25.6164C266.537 22.2953 261.94 20.6113 256.275 20.6113ZM262.798 70.2211C262.798 72.407 262.203 74.2036 261.026 75.5545C259.831 76.9336 258.229 77.6325 256.275 77.6325C254.321 77.6325 252.732 76.9336 251.566 75.5498C250.427 74.1989 249.846 72.407 249.846 70.2211V38.4035C249.846 36.2223 250.422 34.4257 251.566 33.0748C252.732 31.691 254.316 30.992 256.275 30.992C258.234 30.992 259.827 31.691 261.026 33.0701C262.203 34.4257 262.798 36.2176 262.798 38.4035V70.2211Z" fill="#9D1F16"></path><path d="M330.461 62.5423C329.384 60.3845 327.856 58.3956 325.916 56.6366C323.948 54.8447 320.959 52.4899 317.041 49.6332C313.461 46.9548 311.113 44.919 309.862 43.3945C308.569 41.8231 307.913 39.9843 307.913 37.9297C307.913 35.8751 308.424 34.1208 309.436 32.8965C310.476 31.6394 311.868 31.0014 313.578 31.0014C315.41 31.0014 316.901 31.6722 318.002 32.9903C319.079 34.2803 319.623 36.0065 319.623 38.1267V40.716C319.623 40.8755 319.67 40.9928 319.778 41.1007C319.89 41.2133 320.003 41.2602 320.167 41.2602H331.15C331.31 41.2602 331.422 41.2133 331.535 41.1007C331.642 40.9928 331.694 40.8708 331.694 40.716V38.4175C331.694 33.1216 330.021 28.7827 326.717 25.5273C323.409 22.2719 318.99 20.6207 313.578 20.6207C308.166 20.6207 303.963 22.2109 300.725 25.3396C297.487 28.4637 295.847 32.7042 295.847 37.9344C295.847 41.2649 296.531 44.2341 297.876 46.7531C299.235 49.3002 300.898 51.472 302.805 53.2029C304.745 54.962 307.332 57.0118 310.49 59.2962C314.258 62.0357 316.704 64.0527 317.983 65.4646C319.323 66.9469 320.003 68.7435 320.003 70.8074C320.003 72.8714 319.436 74.4522 318.32 75.714C317.186 76.9946 315.753 77.6419 314.052 77.6419C312.351 77.6419 310.917 76.9524 309.815 75.6014C308.742 74.2833 308.199 72.543 308.199 70.4275V68.0305C308.199 67.871 308.147 67.7537 308.04 67.6458C307.932 67.538 307.815 67.4864 307.655 67.4864H296.672C296.512 67.4864 296.4 67.5333 296.287 67.6458C296.175 67.7584 296.128 67.871 296.128 68.0305V71.0983C296.128 74.424 296.873 77.4027 298.34 79.9451C299.802 82.4828 301.901 84.4858 304.586 85.893C307.285 87.3096 310.467 88.0273 314.047 88.0273C319.398 88.0273 323.789 86.409 327.092 83.2146C330.396 80.0248 332.069 75.6624 332.069 70.2352C332.069 67.28 331.53 64.6953 330.461 62.5517V62.5423Z" fill="#9D1F16"></path><path d="M275.759 8.94065C270.29 4.78461 263.669 2.00297 256.35 1.18208C252.751 0.778675 249.213 0.886563 245.802 1.426C242.447 1.95606 239.766 2.74881 236.313 4.19826C236.013 4.32491 235.666 4.39527 235.207 4.90657C235.418 4.72832 237.869 5.15987 238.473 9.83659C238.796 12.318 238.482 14.7807 237.616 15.3014C237.616 15.3014 238.333 15.9205 239.424 15.7517C240.516 15.5828 241.753 15.2873 243.553 14.8886C248.566 13.7675 255.567 12.2805 264.217 12.8621C275.801 13.6408 282.858 17.4169 286.738 21.9482C286.855 22.0842 287.117 22.0467 287.005 21.7934C284.315 16.6851 280.36 12.4447 275.754 8.94534L275.759 8.94065Z" fill="#44691B"></path><path d="M235.338 6.32318C235.151 6.16839 234.471 5.79313 234.143 6.87201C233.872 7.75857 232.672 9.17987 231.411 9.82251C229.378 11.0374 226.529 11.6472 223.82 10.8639C223.385 10.7372 222.958 10.5824 222.532 10.3807C222.85 10.6903 223.178 10.9389 223.506 11.15C225.559 12.4494 227.864 11.9897 231.262 11.9193C232.011 11.9052 232.803 12.1069 233.553 12.4447C233.914 12.6088 234.265 12.8012 234.593 13.0263C235.334 13.5142 235.568 13.8894 235.952 14.2553C235.999 14.2975 236.158 14.457 236.261 14.5086C236.308 14.5321 236.491 14.5696 236.603 14.4898C236.688 14.4336 236.749 14.3022 236.791 14.1568C237.072 13.2046 237.128 11.4315 236.988 10.1696C236.739 7.96027 235.718 6.64216 235.334 6.32318H235.338Z" fill="#44691B"></path><path d="M275.759 8.94065C270.29 4.78461 263.669 2.00297 256.35 1.18208C252.751 0.778675 249.213 0.886563 245.802 1.426C242.447 1.95606 239.766 2.74881 236.313 4.19826C236.013 4.32491 235.666 4.39527 235.207 4.90657C235.418 4.72832 237.869 5.15987 238.473 9.83659C238.796 12.318 238.482 14.7807 237.616 15.3014C237.616 15.3014 238.333 15.9205 239.424 15.7517C240.516 15.5828 241.753 15.2873 243.553 14.8886C248.566 13.7675 255.567 12.2805 264.217 12.8621C275.801 13.6408 282.858 17.4169 286.738 21.9482C286.855 22.0842 287.117 22.0467 287.005 21.7934C284.315 16.6851 280.36 12.4447 275.754 8.94534L275.759 8.94065Z" fill="#8FBF21"></path><path d="M245.76 4.17949C242.878 4.42341 244.11 7.63191 245.418 7.39737C248.089 6.78288 250.544 6.49674 252.849 6.43576C264.756 6.13086 274.114 10.6669 275.885 12.2758C271.429 8.08223 258.369 1.72621 245.76 4.1748V4.17949Z" fill="url(#paint0_linear_17_1460)"></path><g opacity="0.95"><path d="M235.338 6.32318C235.151 6.16839 234.471 5.79313 234.143 6.87201C233.872 7.75857 232.672 9.17987 231.411 9.82251C229.378 11.0374 226.529 11.6472 223.82 10.8639C223.385 10.7372 222.958 10.5824 222.532 10.3807C222.85 10.6903 223.178 10.9389 223.506 11.15C225.559 12.4494 227.864 11.9897 231.262 11.9193C232.011 11.9052 232.803 12.1069 233.553 12.4447C233.914 12.6088 234.265 12.8012 234.593 13.0263C235.334 13.5142 235.568 13.8894 235.952 14.2553C235.999 14.2975 236.158 14.457 236.261 14.5086C236.308 14.5321 236.491 14.5696 236.603 14.4898C236.688 14.4336 236.749 14.3022 236.791 14.1568C237.072 13.2046 237.128 11.4315 236.988 10.1696C236.739 7.96027 235.718 6.64216 235.334 6.32318H235.338Z" fill="#8FBF21"></path></g><path d="M241.744 4.90187C240.816 4.80805 239.992 5.48821 239.907 6.42637C239.832 7.31293 240.493 8.13382 241.374 8.23702C242.302 8.3449 243.136 7.67412 243.229 6.74535C243.323 5.82595 242.658 5.00037 241.739 4.90656L241.744 4.90187Z" fill="white"></path><defs><linearGradient id="paint0_linear_17_1460" x1="244.002" y1="7.96027" x2="275.885" y2="7.96027" gradientUnits="userSpaceOnUse"><stop stop-color="white"></stop><stop offset="1" stop-color="white" stop-opacity="0"></stop></linearGradient></defs></svg> 